<?xml version="1.0" encoding="UTF-8"?>
<svg width="201px" height="201px" viewBox="0 0 201 201" version="1.1" xmlns="http://www.w3.org/2000/svg" xmlns:xlink="http://www.w3.org/1999/xlink">
    <!-- Generator: sketchtool 49.3 (51167) - http://www.bohemiancoding.com/sketch -->
    <title>2BDA5E51-5254-439A-9B4B-551051C06AD7</title>
    <desc>Created with sketchtool.</desc>
    <defs>
        <circle id="path-1" cx="61.5" cy="61.5" r="61.5"></circle>
        <filter x="-49.6%" y="-43.1%" width="199.2%" height="199.2%" filterUnits="objectBoundingBox" id="filter-2">
            <feMorphology radius="6" operator="dilate" in="SourceAlpha" result="shadowSpreadOuter1"></feMorphology>
            <feOffset dx="0" dy="8" in="shadowSpreadOuter1" result="shadowOffsetOuter1"></feOffset>
            <feGaussianBlur stdDeviation="17" in="shadowOffsetOuter1" result="shadowBlurOuter1"></feGaussianBlur>
            <feComposite in="shadowBlurOuter1" in2="SourceAlpha" operator="out" result="shadowBlurOuter1"></feComposite>
            <feColorMatrix values="0 0 0 0 0.849944986   0 0 0 0 0.874388818   0 0 0 0 0.863077045  0 0 0 0.6 0" type="matrix" in="shadowBlurOuter1"></feColorMatrix>
        </filter>
    </defs>
    <g id="Page-1" stroke="none" stroke-width="1" fill="none" fill-rule="evenodd">
        <g id="Desktop-VideoSharks-HD-28.09.2018" transform="translate(-784.000000, -7106.000000)">
            <g id="Group-35" transform="translate(293.000000, 7137.000000)">
                <g id="Group-34" transform="translate(530.000000, 0.000000)">
                    <g id="Oval-2-Copy-10">
                        <use fill="black" fill-opacity="1" filter="url(#filter-2)" xlink:href="#path-1"></use>
                        <use fill="#F8F9FC" fill-rule="evenodd" xlink:href="#path-1"></use>
                        <circle stroke="#FF9714" stroke-width="6" cx="61.5" cy="61.5" r="64.5"></circle>
                    </g>
                    <g id="Group-33" transform="translate(25.000000, 38.000000)" stroke="#FF9714" stroke-width="6">
                        <path d="M0,4 C5.33333333,7.33333333 10.6666667,8 16,6 C24,3 31,-1 34,3 C36,5.66666667 43.3333333,13.6666667 56,27 C59.3333333,31 59,34.6666667 55,38 C51,41.3333333 46,45 40,49 C36.6666667,49.6666667 31.3333333,46.3333333 24,39 C16.6666667,31.6666667 8.66666667,27.6666667 0,27" id="Path-11" stroke-linecap="round"></path>
                        <rect id="Rectangle-19" fill="#F8F9FC" transform="translate(21.087627, 38.793430) rotate(40.000000) translate(-21.087627, -38.793430) " x="5.58762692" y="33.7934302" width="31" height="10" rx="5"></rect>
                        <path d="M73,8 C61.6666667,9.33333333 54.6666667,8.66666667 52,6 C48,2 44,-1 38,2 C32,5 22.0524844,9.47386534 20,12 C17.9475156,14.5261347 17,19 25,18 C30.3333333,17.3333333 36,15.3333333 42,12 L54,25 C60,27.6666667 66.3333333,29 73,29" id="Path-12" fill="#F8F9FC" stroke-linecap="round"></path>
                    </g>
                </g>
            </g>
        </g>
    </g>
</svg>