<?xml version="1.0" encoding="UTF-8"?>
<svg width="201px" height="201px" viewBox="0 0 201 201" version="1.1" xmlns="http://www.w3.org/2000/svg" xmlns:xlink="http://www.w3.org/1999/xlink">
    <!-- Generator: sketchtool 49.3 (51167) - http://www.bohemiancoding.com/sketch -->
    <title>9DD7BADE-7111-4B57-BFD2-12B0E9350CD6</title>
    <desc>Created with sketchtool.</desc>
    <defs>
        <circle id="path-1" cx="61.5" cy="61.5" r="61.5"></circle>
        <filter x="-49.6%" y="-43.1%" width="199.2%" height="199.2%" filterUnits="objectBoundingBox" id="filter-2">
            <feMorphology radius="6" operator="dilate" in="SourceAlpha" result="shadowSpreadOuter1"></feMorphology>
            <feOffset dx="0" dy="8" in="shadowSpreadOuter1" result="shadowOffsetOuter1"></feOffset>
            <feGaussianBlur stdDeviation="17" in="shadowOffsetOuter1" result="shadowBlurOuter1"></feGaussianBlur>
            <feComposite in="shadowBlurOuter1" in2="SourceAlpha" operator="out" result="shadowBlurOuter1"></feComposite>
            <feColorMatrix values="0 0 0 0 0.849944986   0 0 0 0 0.874388818   0 0 0 0 0.863077045  0 0 0 0.6 0" type="matrix" in="shadowBlurOuter1"></feColorMatrix>
        </filter>
    </defs>
    <g id="Page-1" stroke="none" stroke-width="1" fill="none" fill-rule="evenodd">
        <g id="Desktop-VideoSharks-HD-28.09.2018" transform="translate(-458.000000, -7762.000000)">
            <g id="Group-35" transform="translate(293.000000, 7137.000000)">
                <g id="Group-27" transform="translate(204.000000, 656.000000)">
                    <g id="Oval-2-Copy-7">
                        <use fill="black" fill-opacity="1" filter="url(#filter-2)" xlink:href="#path-1"></use>
                        <use fill="#F8F9FC" fill-rule="evenodd" xlink:href="#path-1"></use>
                        <circle stroke="#FF9714" stroke-width="6" cx="61.5" cy="61.5" r="64.5"></circle>
                    </g>
                    <g id="Group-25" transform="translate(22.000000, 32.000000)" stroke="#FF9714" stroke-width="6">
                        <circle id="Oval-8" cx="68" cy="9" r="9"></circle>
                        <path d="M0,60 C0,58.7075343 9.08316757,45.5129869 27.2495027,20.416358 L27.2495039,20.4163588 C27.8971786,19.5216022 29.1475662,19.3213026 30.0423229,19.9689772 C30.2535683,20.1218884 30.4328702,20.3146365 30.5701332,20.5363691 L53.3164616,57.2804379 C53.8978568,58.2196149 55.1305241,58.5096542 56.0697011,57.928259 C56.3276837,57.7685555 56.5459486,57.5522481 56.7079697,57.2957147 L65.3758766,43.5715287 C65.965709,42.6376275 67.2009391,42.3587045 68.1348404,42.9485369 C68.3652895,43.0940837 68.5635569,43.2851985 68.7174689,43.5101469 L80,60" id="Path-10" stroke-linecap="round"></path>
                    </g>
                </g>
            </g>
        </g>
    </g>
</svg>