<?xml version="1.0" encoding="UTF-8"?>
<svg width="201px" height="201px" viewBox="0 0 201 201" version="1.1" xmlns="http://www.w3.org/2000/svg" xmlns:xlink="http://www.w3.org/1999/xlink">
    <!-- Generator: sketchtool 49.3 (51167) - http://www.bohemiancoding.com/sketch -->
    <title>0D5EFFD6-B72F-4E59-9DA5-CC2AEA6A13E1</title>
    <desc>Created with sketchtool.</desc>
    <defs>
        <circle id="path-1" cx="61.5" cy="61.5" r="61.5"></circle>
        <filter x="-49.6%" y="-43.1%" width="199.2%" height="199.2%" filterUnits="objectBoundingBox" id="filter-2">
            <feMorphology radius="6" operator="dilate" in="SourceAlpha" result="shadowSpreadOuter1"></feMorphology>
            <feOffset dx="0" dy="8" in="shadowSpreadOuter1" result="shadowOffsetOuter1"></feOffset>
            <feGaussianBlur stdDeviation="17" in="shadowOffsetOuter1" result="shadowBlurOuter1"></feGaussianBlur>
            <feComposite in="shadowBlurOuter1" in2="SourceAlpha" operator="out" result="shadowBlurOuter1"></feComposite>
            <feColorMatrix values="0 0 0 0 0.849944986   0 0 0 0 0.874388818   0 0 0 0 0.863077045  0 0 0 0.6 0" type="matrix" in="shadowBlurOuter1"></feColorMatrix>
        </filter>
        <polygon id="path-3" points="27 7 38 -4 49 7 49 81 27 81"></polygon>
    </defs>
    <g id="Page-1" stroke="none" stroke-width="1" fill="none" fill-rule="evenodd">
        <g id="Desktop-VideoSharks-HD-28.09.2018" transform="translate(-960.000000, -7323.000000)">
            <g id="Group-35" transform="translate(293.000000, 7137.000000)">
                <g id="Group-32" transform="translate(706.000000, 217.000000)">
                    <g id="Oval-2-Copy-2" transform="translate(61.500000, 61.500000) scale(-1, 1) translate(-61.500000, -61.500000) ">
                        <use fill="black" fill-opacity="1" filter="url(#filter-2)" xlink:href="#path-1"></use>
                        <use fill="#F8F9FC" fill-rule="evenodd" xlink:href="#path-1"></use>
                        <circle stroke="#FF9714" stroke-width="6" cx="61.5" cy="61.5" r="64.5"></circle>
                    </g>
                    <g id="Group-30" transform="translate(24.000000, 26.000000)">
                        <path d="M30,8.24264069 L30,78 L46,78 L46,8.24264069 L38,0.242640687 L30,8.24264069 Z" id="Rectangle-25" stroke="#FF9714" stroke-width="6" transform="translate(38.000000, 38.500000) rotate(-225.000000) translate(-38.000000, -38.500000) "></path>
                        <g id="Rectangle-25-Copy" transform="translate(38.000000, 38.500000) scale(-1, 1) rotate(-225.000000) translate(-38.000000, -38.500000) ">
                            <use fill="#F8F9FC" fill-rule="evenodd" xlink:href="#path-3"></use>
                            <path stroke="#FF9714" stroke-width="6" d="M30,8.24264069 L30,78 L46,78 L46,8.24264069 L38,0.242640687 L30,8.24264069 Z"></path>
                        </g>
                        <path d="M52.5,13.5 L62,23" id="Line-16" stroke="#FF9714" stroke-width="6" stroke-linecap="square"></path>
                        <path d="M14.5,14.5 L24,24" id="Line-16-Copy" stroke="#FF9714" stroke-width="6" stroke-linecap="square" transform="translate(19.000000, 19.000000) scale(-1, 1) translate(-19.000000, -19.000000) "></path>
                    </g>
                </g>
            </g>
        </g>
    </g>
</svg>