<?xml version="1.0" encoding="UTF-8"?>
<svg width="84px" height="83px" viewBox="0 0 84 83" version="1.1" xmlns="http://www.w3.org/2000/svg" xmlns:xlink="http://www.w3.org/1999/xlink">
    <!-- Generator: sketchtool 49.3 (51167) - http://www.bohemiancoding.com/sketch -->
    <title>75B22050-D0AD-4A4D-B72F-E61B104ECEA9</title>
    <desc>Created with sketchtool.</desc>
    <defs></defs>
    <g id="Page-1" stroke="none" stroke-width="1" fill="none" fill-rule="evenodd">
        <g id="Desktop-VideoSharks-HD-28.09.2018" transform="translate(-221.000000, -10318.000000)">
            <g id="Group-16" transform="translate(220.000000, 10303.000000)">
                <g id="Group-15" transform="translate(50.143566, 50.002877) rotate(-44.000000) translate(-50.143566, -50.002877) translate(2.143566, 27.780654)">
                    <path d="M6,6.06060606 L6,37.3900953 L72.3111656,37.3900953 L87.722261,21.7253507 L72.3111656,6.06060606 L6,6.06060606 Z M2,7.08418285e-12 L73.9753757,7.07700565e-12 C74.5079833,7.08059425e-12 75.018592,0.214585903 75.3940191,0.596192062 L94.7800948,20.3013407 C95.555237,21.0892409 95.555237,22.3614605 94.7800948,23.1493606 L75.3940191,42.8545093 C75.018592,43.2361154 74.5079833,43.4507013 73.9753757,43.4507013 L2,43.4507013 C0.8954305,43.4507013 2.63036083e-13,42.5462261 2.62900812e-13,41.4304993 L2.62900812e-13,2.02020202 C2.62765541e-13,0.904475253 0.8954305,7.08418285e-12 2,7.08418285e-12 Z" id="Rectangle-14" fill="#FF9714" fill-rule="nonzero"></path>
                    <ellipse id="Oval-6" stroke="#FF9714" stroke-width="6" cx="68.8826025" cy="21.8957456" rx="4.76190476" ry="4.85625486"></ellipse>
                    <path d="M28.9775463,12.8019114 L28.9775463,30.2844289" id="Line-10" stroke="#FF9714" stroke-width="6" stroke-linecap="square"></path>
                    <path d="M18.5013558,12.8019114 L18.5013558,30.2844289" id="Line-10-Copy" stroke="#FF9714" stroke-width="6" stroke-linecap="square"></path>
                </g>
            </g>
        </g>
    </g>
</svg>