<?xml version="1.0" encoding="UTF-8"?>
<svg width="100px" height="100px" viewBox="0 0 100 100" version="1.1" xmlns="http://www.w3.org/2000/svg" xmlns:xlink="http://www.w3.org/1999/xlink">
    <!-- Generator: sketchtool 49.3 (51167) - http://www.bohemiancoding.com/sketch -->
    <title>951373E2-219E-48CA-B41F-50F4E54445C5</title>
    <desc>Created with sketchtool.</desc>
    <defs>
        <path d="M31.979632,32 L97.7878788,32 C98.8924483,32 99.7878788,32.8954305 99.7878788,34 L99.7878788,83.1616649 C99.7878788,84.2662344 98.8924483,85.1616649 97.7878788,85.1616649 L67.1927974,85.1616649 L51.6148721,98.2471222 C49.9233236,99.6680229 47.400185,99.4486195 45.9792843,97.757071 C45.3739526,97.0364381 45.0421037,96.1254393 45.0421037,95.1843027 L45.0421037,85.1616649 L31.979632,85.1616649 C30.8750625,85.1616649 29.979632,84.2662344 29.979632,83.1616649 L29.979632,34 C29.979632,32.8954305 30.8750625,32 31.979632,32 Z" id="path-1"></path>
        <path d="M2,0 L76.7878788,0 C77.8924483,-2.02906125e-16 78.7878788,0.8954305 78.7878788,2 L78.7878788,58 C78.7878788,59.1045695 77.8924483,60 76.7878788,60 L42,60 L23.5727683,75.4788746 C21.8812199,76.8997753 19.3580813,76.680372 17.9371805,74.9888235 C17.3318489,74.2681906 17,73.3571918 17,72.4160551 L17,60 L2,60 C0.8954305,60 1.11649173e-14,59.1045695 7.10542736e-15,58 L0,2 C-6.25798147e-16,0.8954305 0.8954305,-2.41183085e-16 2,-4.4408921e-16 Z" id="path-2"></path>
    </defs>
    <g id="Page-1" stroke="none" stroke-width="1" fill="none" fill-rule="evenodd">
        <g id="Desktop-VideoSharks-HD-28.09.2018" transform="translate(-825.000000, -10303.000000)">
            <g id="Group-17-Copy" transform="translate(825.000000, 10303.000000)">
                <g id="Rectangle-16-Copy-3" transform="translate(64.883755, 65.592197) scale(-1, 1) translate(-64.883755, -65.592197) ">
                    <use fill="#F8F9FC" fill-rule="evenodd" xlink:href="#path-1"></use>
                    <path stroke="#FF9714" stroke-width="6" d="M32.979632,35 L32.979632,82.1616649 L48.0421037,82.1616649 L48.0421037,95.1843027 C48.0421037,95.4195869 48.1250659,95.6473366 48.2763988,95.8274948 C48.631624,96.2503819 49.2624087,96.3052327 49.6852958,95.9500076 L66.0999895,82.1616649 L96.7878788,82.1616649 L96.7878788,35 L32.979632,35 Z"></path>
                </g>
                <g id="Rectangle-16-Copy-2">
                    <use fill="#F8F9FC" fill-rule="evenodd" xlink:href="#path-2"></use>
                    <path stroke="#FF9714" stroke-width="6" d="M3,3 L3,57 L20,57 L20,72.4160551 C20,72.6513393 20.0829622,72.879089 20.2342951,73.0592472 C20.5895203,73.4821343 21.220305,73.5369852 21.6431921,73.18176 L40.9071921,57 L75.7878788,57 L75.7878788,3 L3,3 Z"></path>
                </g>
                <path d="M20.5,23.5 L58.6182371,23.5" id="Line-11" stroke="#FF9714" stroke-width="6" stroke-linecap="square"></path>
                <path d="M20.5,35.5 L58.6182371,35.5" id="Line-11-Copy" stroke="#FF9714" stroke-width="6" stroke-linecap="square"></path>
            </g>
        </g>
    </g>
</svg>