<?xml version="1.0" encoding="UTF-8"?>
<svg width="100px" height="100px" viewBox="0 0 100 100" version="1.1" xmlns="http://www.w3.org/2000/svg" xmlns:xlink="http://www.w3.org/1999/xlink">
    <!-- Generator: sketchtool 49.3 (51167) - http://www.bohemiancoding.com/sketch -->
    <title>E87EDCCD-D667-4CD3-957C-6CC03C98E81E</title>
    <desc>Created with sketchtool.</desc>
    <defs></defs>
    <g id="Page-1" stroke="none" stroke-width="1" fill="none" fill-rule="evenodd">
        <g id="Desktop-VideoSharks-HD-28.09.2018" transform="translate(-220.000000, -10017.000000)">
            <g id="Group-11" transform="translate(220.000000, 10017.000000)">
                <path d="M46,39.24 C46,38.3039953 46.3359966,37.5300031 47.008,36.918 C47.6800034,36.3059969 48.5679945,36 49.672,36 C50.7760055,36 51.6639966,36.3059969 52.336,36.918 C53.0080034,37.5300031 53.344,38.3039953 53.344,39.24 C53.344,40.1520046 53.0080034,40.9139969 52.336,41.526 C51.6639966,42.1380031 50.7760055,42.444 49.672,42.444 C48.5679945,42.444 47.6800034,42.1380031 47.008,41.526 C46.3359966,40.9139969 46,40.1520046 46,39.24 Z M52.732,44.892 L52.732,64.98 L46.576,64.98 L46.576,44.892 L52.732,44.892 Z" id="i" fill="#FF9714"></path>
                <circle id="Oval-4" stroke="#FF9714" stroke-width="6" cx="50" cy="50" r="47"></circle>
                <circle id="Oval-4-Copy" stroke="#FF9714" stroke-width="6" cx="50" cy="50" r="36"></circle>
            </g>
        </g>
    </g>
</svg>