<?xml version="1.0" encoding="UTF-8"?>
<svg width="106px" height="103px" viewBox="0 0 106 103" version="1.1" xmlns="http://www.w3.org/2000/svg" xmlns:xlink="http://www.w3.org/1999/xlink">
    <!-- Generator: sketchtool 49.3 (51167) - http://www.bohemiancoding.com/sketch -->
    <title>0B525C57-765C-4633-9BF3-66EEA0C7169B</title>
    <desc>Created with sketchtool.</desc>
    <defs>
        <rect id="path-1" x="0" y="0" width="66" height="30.9278351" rx="2"></rect>
    </defs>
    <g id="Page-1" stroke="none" stroke-width="1" fill="none" fill-rule="evenodd">
        <g id="Desktop-VideoSharks-HD-01.10.2018-(New-One)" transform="translate(-1122.000000, -7730.000000)">
            <g id="Group-38" transform="translate(1125.000000, 7733.000000)">
                <g id="Group-17-Copy-2" transform="translate(18.000000, 69.072165)">
                    <g id="Rectangle-16-Copy-2">
                        <use fill="#F8F9FC" fill-rule="evenodd" xlink:href="#path-1"></use>
                        <rect stroke="#FF9714" stroke-width="6" x="3" y="3" width="60" height="24.9278351" rx="2"></rect>
                    </g>
                </g>
                <path d="M20,72.1649485 L0,56.7010309" id="Line-17" stroke="#FF9714" stroke-width="6" stroke-linecap="round"></path>
                <path d="M100,72.1649485 L80,56.7010309" id="Line-17-Copy" stroke="#FF9714" stroke-width="6" stroke-linecap="round" transform="translate(90.000000, 64.432990) scale(-1, 1) translate(-90.000000, -64.432990) "></path>
                <path d="M55.7553435,49.5773196 C56.3747016,48.1378401 57.5717148,46.2425209 60.4284421,41.7803368 C61.6138082,39.9288049 62.4113496,38.6039708 63.0902712,37.3165106 C64.3653675,34.8985055 65,32.9635297 65,31.443299 C65,23.1161488 58.4873356,16.4020619 50.5,16.4020619 C42.5126644,16.4020619 36,23.1161488 36,31.443299 C36,32.9622733 36.6330059,34.8946116 37.9048063,37.3082247 C38.5845089,38.598159 39.3834478,39.9255156 40.5714932,41.781069 C43.4285805,46.2434223 44.6254865,48.1383294 45.2447003,49.5773196 C45.2771233,49.5773196 45.3101353,49.5773196 45.34375,49.5773196 C47.6875,49.5773196 47.6875,49.5773196 50.5,49.5773196 C53.3125,49.5773196 53.3125,49.5773196 55.65625,49.5773196 C55.6898798,49.5773196 55.7229065,49.5773196 55.7553435,49.5773196 Z" id="Oval-11" stroke="#FF9714" stroke-width="6"></path>
                <path d="M44.4642857,56.7010309 L57,56.7010309" id="Line-18" stroke="#FF9714" stroke-width="6" stroke-linecap="round"></path>
                <path d="M50,0.0368188513 L50,7.2533137" id="Line-18-Copy-2" stroke="#FF9714" stroke-width="6" stroke-linecap="round"></path>
                <path d="M27,31.9587629 L20,31.9587629" id="Line-18-Copy-5" stroke="#FF9714" stroke-width="6" stroke-linecap="round"></path>
                <path d="M81,31.9587629 L74,31.9587629" id="Line-18-Copy-6" stroke="#FF9714" stroke-width="6" stroke-linecap="round"></path>
                <path d="M28,8.24742268 L33.2020138,13.0762003" id="Line-18-Copy-4" stroke="#FF9714" stroke-width="6" stroke-linecap="round"></path>
                <path d="M28,49.4845361 L33.2020138,54.3133137" id="Line-18-Copy-8" stroke="#FF9714" stroke-width="6" stroke-linecap="round" transform="translate(30.601007, 51.898925) scale(1, -1) translate(-30.601007, -51.898925) "></path>
                <path d="M69,8.24742268 L74.2020138,13.0762003" id="Line-18-Copy-7" stroke="#FF9714" stroke-width="6" stroke-linecap="round" transform="translate(71.601007, 10.661811) scale(-1, 1) translate(-71.601007, -10.661811) "></path>
                <path d="M69,49.4845361 L74.2020138,54.3133137" id="Line-18-Copy-9" stroke="#FF9714" stroke-width="6" stroke-linecap="round" transform="translate(71.601007, 51.898925) scale(-1, -1) translate(-71.601007, -51.898925) "></path>
                <path d="M44.4642857,63.9175258 L57,63.9175258" id="Line-18-Copy" stroke="#FF9714" stroke-width="6" stroke-linecap="round"></path>
            </g>
        </g>
    </g>
</svg>