<?xml version="1.0" encoding="UTF-8"?>
<svg width="100px" height="100px" viewBox="0 0 100 100" version="1.1" xmlns="http://www.w3.org/2000/svg" xmlns:xlink="http://www.w3.org/1999/xlink">
    <!-- Generator: sketchtool 49.3 (51167) - http://www.bohemiancoding.com/sketch -->
    <title>8B8036D9-EB76-432E-B1BB-523D1752C97D</title>
    <desc>Created with sketchtool.</desc>
    <defs></defs>
    <g id="Page-1" stroke="none" stroke-width="1" fill="none" fill-rule="evenodd">
        <g id="Desktop-VideoSharks-HD-28.09.2018" transform="translate(-825.000000, -10017.000000)" stroke="#FF9714" stroke-width="6">
            <g id="Group-18" transform="translate(825.000000, 10017.000000)">
                <path d="M3,3.96689193 L3,97 L50,97 L50,17.2687787 L3,3.96689193 Z" id="Rectangle-22"></path>
                <path d="M50,17.2687787 L50,97 L97,97 L97,3.96689193 L50,17.2687787 Z" id="Rectangle-22-Copy"></path>
                <path d="M15.9480231,31.5 L37.6182371,31.5" id="Line-11" stroke-linecap="square"></path>
                <path d="M62.9480231,31.5 L84.6182371,31.5" id="Line-11-Copy-7" stroke-linecap="square"></path>
                <path d="M15.9480231,42.5 L37.6182371,42.5" id="Line-11-Copy-2" stroke-linecap="square"></path>
                <path d="M62.9480231,42.5 L84.6182371,42.5" id="Line-11-Copy-8" stroke-linecap="square"></path>
                <path d="M15.9480231,53.5 L37.6182371,53.5" id="Line-11-Copy-3" stroke-linecap="square"></path>
                <path d="M62.9480231,53.5 L84.6182371,53.5" id="Line-11-Copy-9" stroke-linecap="square"></path>
                <path d="M15.9480231,64.5 L37.6182371,64.5" id="Line-11-Copy-4" stroke-linecap="square"></path>
                <path d="M62.9480231,64.5 L84.6182371,64.5" id="Line-11-Copy-10" stroke-linecap="square"></path>
                <path d="M3.96655266,81.5 L48,95" id="Line-11-Copy-5" stroke-linecap="square"></path>
                <path d="M51.9665527,81.5 L96,95" id="Line-11-Copy-6" stroke-linecap="square" transform="translate(73.500000, 88.000000) scale(-1, 1) translate(-73.500000, -88.000000) "></path>
            </g>
        </g>
    </g>
</svg>