<?xml version="1.0" encoding="UTF-8"?>
<svg width="20px" height="20px" viewBox="0 0 20 20" version="1.1" xmlns="http://www.w3.org/2000/svg" xmlns:xlink="http://www.w3.org/1999/xlink">
    <!-- Generator: sketchtool 49.3 (51167) - http://www.bohemiancoding.com/sketch -->
    <title>D9C11728-2635-4F60-9263-F86A68A4A948</title>
    <desc>Created with sketchtool.</desc>
    <defs></defs>
    <g id="Page-1" stroke="none" stroke-width="1" fill="none" fill-rule="evenodd">
        <g id="Desktop-VideoSharks-HD-28.09.2018" transform="translate(-588.000000, -1007.000000)" fill="#FF9714" fill-rule="nonzero">
            <g id="Group-19" transform="translate(588.000000, 995.000000)">
                <g id="check" transform="translate(0.000000, 12.000000)">
                    <path d="M8.82351562,13.1578868 C8.51175781,13.1567626 8.21351562,13.0371117 7.99410156,12.8249404 L6.22941406,11.1320663 C5.77,10.691348 5.77,9.97580364 6.22941406,9.53512277 C6.68882812,9.0944419 7.43472656,9.09440442 7.89410156,9.53512277 L8.88820312,10.4887697 L12.1764453,7.78577709 C12.7158594,7.43817881 13.4470312,7.5764162 13.8087891,8.09387897 C14.109375,8.52388008 14.0670312,9.09436695 13.7058594,9.47865116 L9.58820312,12.8644368 C9.37824219,13.0473044 9.10707031,13.1516663 8.82351562,13.1578868 Z" id="Shape"></path>
                    <path d="M10,20 C4.47707031,20 0,15.5229297 0,10 C0,4.47707031 4.47707031,0 10,0 C15.5229297,0 20,4.47707031 20,10 C20,15.5229297 15.5229297,20 10,20 Z M10,2.35292969 C5.77648438,2.35292969 2.35292969,5.77648438 2.35292969,10 C2.35292969,14.2235156 5.77648438,17.6470703 10,17.6470703 C14.2235156,17.6470703 17.6470703,14.2235156 17.6470703,10 C17.6470703,5.77648438 14.2235156,2.35292969 10,2.35292969 Z" id="Shape"></path>
                </g>
            </g>
        </g>
    </g>
</svg>