<?xml version="1.0" encoding="UTF-8"?>
<svg width="28px" height="28px" viewBox="0 0 28 28" version="1.1" xmlns="http://www.w3.org/2000/svg" xmlns:xlink="http://www.w3.org/1999/xlink">
    <!-- Generator: sketchtool 49.3 (51167) - http://www.bohemiancoding.com/sketch -->
    <title>210196CE-0DBB-41F6-8A3A-324033DF7AD8@1x</title>
    <desc>Created with sketchtool.</desc>
    <defs></defs>
    <g id="Page-1" stroke="none" stroke-width="1" fill="none" fill-rule="evenodd">
        <g id="Desktop-VideoSharks-HD-01.10.2018-(New-One)" transform="translate(-931.000000, -313.000000)" fill="#FF9714" fill-rule="nonzero">
            <g id="Group-12" transform="translate(854.000000, 155.000000)">
                <g id="Group-3">
                    <path d="M100.895964,162.102517 C95.4258578,156.632494 86.5631216,156.632494 81.0988344,162.102517 C75.8382214,167.363049 75.6403665,175.777572 80.5110889,181.27669 L80.6565705,181.393073 C80.1270176,182.533631 79.2192127,183.941871 77.7760357,184.65181 C77.2988562,184.884577 77.4094222,185.594516 77.9331558,185.675984 C79.5101758,185.92039 81.7738688,185.646889 83.886261,184.052435 L83.9153573,184.075712 C89.280717,187.229704 96.2987471,186.508126 100.907603,181.899341 C106.366071,176.435139 106.366071,167.56672 100.895964,162.102517 Z M95.6120742,177.988858 C95.3036533,178.303093 94.9777746,178.594052 94.6868115,178.919925 C94.2620054,179.397097 93.7266333,179.548396 93.12143,179.513481 C92.2369021,179.466927 91.4163862,179.17015 90.6307858,178.786084 C88.8791879,177.936485 87.3836375,176.755193 86.1324962,175.265485 C85.2072335,174.165661 84.4449101,172.966912 83.9386343,171.611044 C83.6942253,170.953478 83.5196475,170.284273 83.5720208,169.574334 C83.6069364,169.137896 83.7698757,168.765469 84.0899352,168.457053 C84.4390909,168.12536 84.7649696,167.782029 85.108306,167.444517 C85.5563892,167.00226 86.1150384,167.008079 86.5631216,167.444517 C86.8424461,167.718018 87.1101322,167.991519 87.3836375,168.26502 C87.6513236,168.532702 87.9190096,168.794565 88.1808764,169.062247 C88.6464174,169.5336 88.6464174,170.080602 88.1808764,170.551955 C87.8491785,170.889467 87.5174806,171.226979 87.1741441,171.552853 C87.0868552,171.64014 87.0752166,171.70997 87.1217707,171.820535 C87.3429027,172.355899 87.6687814,172.833071 88.0295756,173.275328 C88.7569834,174.17148 89.5833186,174.968707 90.5725932,175.585539 C90.7820866,175.71938 91.0148571,175.812487 91.2359891,175.93469 C91.346555,175.998701 91.4280247,175.975424 91.5153136,175.882317 C91.8470116,175.538986 92.1903481,175.201474 92.5278653,174.863962 C92.9759484,174.421705 93.5345976,174.421705 93.9768615,174.863962 C94.5238722,175.405145 95.0650635,175.946328 95.6062549,176.49333 C96.0717959,176.970502 96.0717959,177.529143 95.6120742,177.988858 Z M90.4503887,168.945863 L90.6249665,167.700561 C91.8295538,167.869317 92.9235751,168.416319 93.7848259,169.277556 C94.6053418,170.09806 95.140714,171.128053 95.3327496,172.262792 L94.0932468,172.478101 C93.941946,171.599406 93.5287783,170.80218 92.8944788,170.16789 C92.2252636,169.498685 91.3814706,169.073885 90.4503887,168.945863 Z M97.3578528,172.262792 C97.0785282,170.633424 96.3103856,169.155354 95.140714,167.979881 C93.9070304,166.746216 92.3416489,165.966447 90.613328,165.722042 L90.7879059,164.476739 C92.7839128,164.756059 94.5995226,165.658031 96.0252418,167.089547 C97.3811299,168.445415 98.271477,170.162071 98.5973557,172.047482 L97.3578528,172.262792 Z" id="Shape"></path>
                </g>
            </g>
        </g>
    </g>
</svg>