<?xml version="1.0" encoding="UTF-8"?>
<svg width="108px" height="109px" viewBox="0 0 108 109" version="1.1" xmlns="http://www.w3.org/2000/svg" xmlns:xlink="http://www.w3.org/1999/xlink">
    <!-- Generator: sketchtool 49.3 (51167) - http://www.bohemiancoding.com/sketch -->
    <title>CFB6CA2A-3445-4A53-81CB-61BCB1908B1A</title>
    <desc>Created with sketchtool.</desc>
    <defs>
        <path d="M61.9262705,-4.86504349 L69.0194718,3.22646012 L76.112673,-4.86504349 L76.112673,14.0151316 L71.99404,21.6571072 L71.99404,64.9839208 C71.99404,66.6267294 70.6622804,67.958489 69.0194718,67.958489 L69.0194718,67.958489 C67.3766631,67.958489 66.0449035,66.6267294 66.0449035,64.9839208 L66.0449035,21.6571072 L61.9262705,14.0151316 L61.9262705,-4.86504349 Z" id="path-1"></path>
    </defs>
    <g id="Page-1" stroke="none" stroke-width="1" fill="none" fill-rule="evenodd">
        <g id="Desktop-VideoSharks-HD-28.09.2018" transform="translate(-667.000000, -1510.000000)">
            <g id="Group-8" transform="translate(670.000000, 1515.000000)">
                <circle id="Oval-3" stroke="#FF9714" stroke-width="6" cx="45.045045" cy="55.045045" r="45.045045"></circle>
                <circle id="Oval-3-Copy-3" stroke="#FF9714" stroke-width="6" cx="46" cy="56" r="33"></circle>
                <circle id="Oval-3-Copy" stroke="#FF9714" stroke-width="6" cx="45.9459459" cy="55.8558559" r="21.536036"></circle>
                <circle id="Oval-3-Copy-2" stroke="#FF9714" stroke-width="6" cx="45.4954955" cy="55.4054054" r="9.45945946"></circle>
                <g id="Rectangle-9" transform="translate(69.019472, 31.546723) rotate(45.000000) translate(-69.019472, -31.546723) ">
                    <use fill="#FF9714" fill-rule="evenodd" xlink:href="#path-1"></use>
                    <path stroke="#F8F9FC" stroke-width="2" d="M69.0194718,1.70945998 L77.112673,-7.52278437 L77.112673,14.26745 L72.99404,21.9094256 L72.99404,64.9839208 C72.99404,67.1790142 71.2145652,68.958489 69.0194718,68.958489 C66.8243783,68.958489 65.0449035,67.1790142 65.0449035,64.9839208 L65.0449035,21.9094256 L60.9262705,14.26745 L60.9262705,-7.52278437 L69.0194718,1.70945998 Z"></path>
                </g>
            </g>
        </g>
    </g>
</svg>