<?xml version="1.0" encoding="UTF-8"?>
<svg width="118px" height="120px" viewBox="0 0 118 120" version="1.1" xmlns="http://www.w3.org/2000/svg" xmlns:xlink="http://www.w3.org/1999/xlink">
    <!-- Generator: sketchtool 49.3 (51167) - http://www.bohemiancoding.com/sketch -->
    <title>9DB01851-5510-445A-ACFA-05D847256C51@1x</title>
    <desc>Created with sketchtool.</desc>
    <defs>
        <path d="M720,2827 C705.640489,2827 694,2839.0882 694,2854 C694,2868.9118 705.640489,2881 720,2881 C734.359511,2881 746,2868.9118 746,2854 C746,2839.0882 734.359511,2827 720,2827 Z M731.188992,2854.94854 L716.457645,2863.76896 C715.368263,2864.42135 714,2863.61451 714,2862.32046 L714,2844.67962 C714,2843.38498 715.368263,2842.57873 716.457645,2843.23112 L731.189573,2852.05154 C732.270239,2852.69856 732.270239,2854.30152 731.188992,2854.94854 Z" id="path-1"></path>
        <filter x="-107.7%" y="-85.2%" width="315.4%" height="307.4%" filterUnits="objectBoundingBox" id="filter-2">
            <feOffset dx="0" dy="10" in="SourceAlpha" result="shadowOffsetOuter1"></feOffset>
            <feGaussianBlur stdDeviation="17" in="shadowOffsetOuter1" result="shadowBlurOuter1"></feGaussianBlur>
            <feColorMatrix values="0 0 0 0 0.823554422   0 0 0 0 0.823554422   0 0 0 0 0.823554422  0 0 0 0.5 0" type="matrix" in="shadowBlurOuter1"></feColorMatrix>
        </filter>
    </defs>
    <g id="Page-1" stroke="none" stroke-width="1" fill="none" fill-rule="evenodd">
        <g id="Desktop-VideoSharks-HD-01.10.2018-(New-One)" transform="translate(-661.000000, -2804.000000)">
            <g id="Shape">
                <use fill="black" fill-opacity="1" filter="url(#filter-2)" xlink:href="#path-1"></use>
                <use fill="#32325C" fill-rule="evenodd" xlink:href="#path-1"></use>
            </g>
        </g>
    </g>
</svg>