<?xml version="1.0" encoding="UTF-8"?>
<svg width="40px" height="27px" viewBox="0 0 40 27" version="1.1" xmlns="http://www.w3.org/2000/svg" xmlns:xlink="http://www.w3.org/1999/xlink">
    <!-- Generator: sketchtool 49.3 (51167) - http://www.bohemiancoding.com/sketch -->
    <title>5711607F-F807-44E5-96E1-2ADD2CB2B35F</title>
    <desc>Created with sketchtool.</desc>
    <defs></defs>
    <g id="Page-1" stroke="none" stroke-width="1" fill="none" fill-rule="evenodd" opacity="0.1">
        <g id="Desktop-VideoSharks-HD-01.10.2018-(New-One)" transform="translate(-168.000000, -1097.000000)" fill="#FF9714">
            <path d="M176.967972,1097 C180.05221,1097 182.365354,1098.01612 183.907473,1100.04839 C185.449593,1102.08066 186.220641,1104.66934 186.220641,1107.81452 C186.220641,1111.39518 185.247934,1114.61289 183.302491,1117.46774 C181.357048,1120.32259 178.557551,1122.49999 174.903915,1124 L168,1119.5 C170.60974,1118.38709 172.756812,1117.21372 174.441281,1115.97984 C176.12575,1114.74596 177.347564,1113.25807 178.106762,1111.51613 L177.75089,1111.22581 C177.134042,1111.90323 176.374856,1112.24194 175.47331,1112.24194 C173.527867,1112.24194 171.831561,1111.62501 170.384342,1110.39113 C168.937122,1109.15725 168.213523,1107.37904 168.213523,1105.05645 C168.213523,1102.34676 168.984571,1100.32662 170.52669,1098.99597 C172.06881,1097.66532 174.215882,1097 176.967972,1097 Z M198.747331,1097 C201.831569,1097 204.144714,1098.01612 205.686833,1100.04839 C207.228952,1102.08066 208,1104.66934 208,1107.81452 C208,1111.39518 207.027293,1114.61289 205.081851,1117.46774 C203.136408,1120.32259 200.33691,1122.49999 196.683274,1124 L189.779359,1119.5 C192.3891,1118.38709 194.536172,1117.21372 196.220641,1115.97984 C197.905109,1114.74596 199.126924,1113.25807 199.886121,1111.51613 L199.530249,1111.22581 C198.913401,1111.90323 198.154216,1112.24194 197.252669,1112.24194 C195.307226,1112.24194 193.610921,1111.62501 192.163701,1110.39113 C190.716481,1109.15725 189.992883,1107.37904 189.992883,1105.05645 C189.992883,1102.34676 190.763931,1100.32662 192.30605,1098.99597 C193.848169,1097.66532 195.995241,1097 198.747331,1097 Z" id=",," transform="translate(188.000000, 1110.500000) rotate(-180.000000) translate(-188.000000, -1110.500000) "></path>
        </g>
    </g>
</svg>