<?xml version="1.0" encoding="UTF-8"?>
<svg width="219px" height="235px" viewBox="0 0 219 235" version="1.1" xmlns="http://www.w3.org/2000/svg" xmlns:xlink="http://www.w3.org/1999/xlink">
    <!-- Generator: sketchtool 49.3 (51167) - http://www.bohemiancoding.com/sketch -->
    <title>56D168B0-3035-4132-8F49-B6428E69A699</title>
    <desc>Created with sketchtool.</desc>
    <defs></defs>
    <g id="Page-1" stroke="none" stroke-width="1" fill="none" fill-rule="evenodd">
        <g id="Desktop-VideoSharks-HD-28.09.2018" transform="translate(-231.000000, -923.000000)" stroke="#FF9714" stroke-width="6">
            <g id="Why-us-icon" transform="translate(231.000000, 923.000000)">
                <path d="M45,101 L45,118 L235,118 L235,125.875355 L256.106013,109.5 L235,93.1246453 L235,101 L45,101 Z" id="Rectangle-13-Copy-2" transform="translate(151.500000, 109.500000) rotate(-90.000000) translate(-151.500000, -109.500000) "></path>
                <path d="M34.5,141.5 L34.5,158.5 L143.5,158.5 L143.5,166.375355 L164.606013,150 L143.5,133.624645 L143.5,141.5 L34.5,141.5 Z" id="Rectangle-13-Copy-4" transform="translate(100.500000, 150.000000) rotate(-90.000000) translate(-100.500000, -150.000000) "></path>
                <path d="M13,171 L13,188 L63,188 L63,195.875355 L84.1060128,179.5 L63,163.124645 L63,171 L13,171 Z" id="Rectangle-13-Copy-5" transform="translate(49.500000, 179.500000) rotate(-90.000000) translate(-49.500000, -179.500000) "></path>
                <path d="M3,54 L3,216 L198,216 L198,54 L3,54 Z" id="Rectangle-23"></path>
                <polyline id="Path-8" points="171 39 216 39 216 232 0 232"></polyline>
            </g>
        </g>
    </g>
</svg>